<svg id="Слой_1" data-name="Слой 1" xmlns="http://www.w3.org/2000/svg" viewBox="0 0 1440 245.9"><defs><style>.cls-1{opacity:0.5;}.cls-2{fill:#fff;}</style></defs><title>aquarium</title><g class="cls-1"><path class="cls-2" d="M154,160.76H71.57L56.25,198.64H0L86.05,3.7h54.3l86.33,194.93H169.31Zm-16.15-40.66L112.78,57.73,87.72,120.11Z" transform="translate(0 0.2)"/><path class="cls-2" d="M456.15,221.19a63.83,63.83,0,0,1-23.81,18.24,74.75,74.75,0,0,1-30.77,6.27,95.88,95.88,0,0,1-29.24-4.18A93.31,93.31,0,0,1,346,227.74q-13.23-9.61-29.66-26.87a107.56,107.56,0,0,1-45.11-18.1,97.14,97.14,0,0,1-30.77-35.09,99.27,99.27,0,0,1-11-46.51q0-29,14.06-52.08a98.35,98.35,0,0,1,38.71-36.2Q306.88-.19,337.79-.2t55.56,13.09a98.38,98.38,0,0,1,38.71,36.2q14.06,23.12,14.06,52.08,0,32.86-18,58.06T379.84,195.3a35.52,35.52,0,0,0,11,8.63,27.88,27.88,0,0,0,11.84,2.51q16.43,0,29.52-13.65Zm-164-90.92a50,50,0,0,0,18.94,19.63,54.81,54.81,0,0,0,53.47,0,50.07,50.07,0,0,0,18.94-19.63q7-12.67,7-29.1t-7-29.1a50.12,50.12,0,0,0-18.94-19.63,54.81,54.81,0,0,0-53.47,0,50.06,50.06,0,0,0-18.94,19.63q-7,12.67-7,29.1T292.12,130.27Z" transform="translate(0 0.2)"/><path class="cls-2" d="M497.5,178.87q-24.09-23.67-24.09-67.11V3.7h55.14V110.08q0,46.78,37,46.78,36.76,0,36.76-46.78V3.7h54.3v108q0,43.44-24.09,67.11T565,202.54Q521.59,202.54,497.5,178.87Z" transform="translate(0 0.2)"/><path class="cls-2" d="M779.18,146.84H749.1v51.8H694V3.7h89.11q26.45,0,45.95,8.77T859.1,37.54q10.58,16.29,10.58,38.29,0,21.17-9.89,36.9t-28.27,24.65l42,61.27h-59Zm26.18-92.18q-8.63-7.52-25.62-7.52H749.1v57.09h30.63q17,0,25.62-7.38t8.63-21Q814,62.19,805.36,54.66Z" transform="translate(0 0.2)"/><path class="cls-2" d="M900,3.7h55.14V198.64H900Z" transform="translate(0 0.2)"/><path class="cls-2" d="M1016.85,178.87q-24.09-23.67-24.09-67.11V3.7h55.14V110.08q0,46.78,37,46.78,36.76,0,36.76-46.78V3.7H1176v108q0,43.44-24.09,67.11t-67.53,23.67Q1040.94,202.54,1016.85,178.87Z" transform="translate(0 0.2)"/><path class="cls-2" d="M1389.32,198.64l-.56-103.32-50.13,84.1h-24.51l-49.85-81.32V198.64h-51V3.7h45.39l68.51,112.51L1394.05,3.7h45.39l.56,194.93Z" transform="translate(0 0.2)"/></g></svg>